<?xml version="1.0" encoding="UTF-8"?>
<svg width="122px" height="99px" viewBox="0 0 122 99" version="1.1" xmlns="http://www.w3.org/2000/svg" xmlns:xlink="http://www.w3.org/1999/xlink">
    <!-- Generator: Sketch 43.1 (39012) - http://www.bohemiancoding.com/sketch -->
    <title>filter (1)</title>
    <desc>Created with Sketch.</desc>
    <defs>
        <linearGradient x1="50%" y1="2.82405931%" x2="50%" y2="100%" id="linearGradient-1">
            <stop stop-color="#1711C1" offset="0%"></stop>
            <stop stop-color="#5145FB" offset="100%"></stop>
        </linearGradient>
    </defs>
    <g id="Page-1" stroke="none" stroke-width="1" fill="none" fill-rule="evenodd">
        <g id="filter-(1)" fill-rule="nonzero" fill="url(#linearGradient-1)">
            <g id="Group" transform="translate(61.300000, 49.500000) scale(-1, 1) rotate(-180.000000) translate(-61.300000, -49.500000) translate(0.800000, 0.000000)">
                <path d="M4.5,93.8 C6.9,90.9 17.5,78.2 28.1,65.5 L47.2,42.6 L47.2,21.3 L47.2,0 L52.4,3.4 C55.3,5.2 61.2,8.9 65.5,11.5 L73.2,16.3 L73.2,29.4 L73.2,42.5 L85.2,57 C91.8,65 100.1,74.9 103.6,79 C107,83.1 112.2,89.3 115.1,92.8 L120.3,99 L60.2,99 L-7.10542736e-15,99 L4.5,93.8 Z" id="Shape"></path>
            </g>
        </g>
    </g>
</svg>