<?xml version="1.0" encoding="UTF-8"?>
<svg width="301px" height="203px" viewBox="0 0 301 203" version="1.1" xmlns="http://www.w3.org/2000/svg" xmlns:xlink="http://www.w3.org/1999/xlink">
    <!-- Generator: Sketch 43.1 (39012) - http://www.bohemiancoding.com/sketch -->
    <title>logo</title>
    <desc>Created with Sketch.</desc>
    <defs></defs>
    <g id="Page-1" stroke="none" stroke-width="1" fill="none" fill-rule="evenodd">
        <g id="logo" transform="translate(-1.000000, -1.000000)" fill-rule="nonzero">
            <g id="Group" transform="translate(278.265000, 177.060000) scale(-1, 1) rotate(-180.000000) translate(-278.265000, -177.060000) translate(254.265000, 150.060000)" fill="#FFFFFF">
                <g transform="translate(0.000000, 0.000000)" id="Shape">
                    <g transform="translate(0.807600, 0.415050)">
                        <path d="M23.91,-7.10542736e-15 C9.880755,-7.10542736e-15 1.55981,7.179285 0.923115,17.52009 L14.33762,17.52009 C14.33762,14.073155 16.247705,9.48456 24.546695,9.199145 C30.298905,9.199145 33.48238,12.64608 33.48238,15.23677 C32.845685,19.254535 27.73017,19.53995 22.63661,20.41815 C16.8844,21.25244 12.427535,22.416055 9.222105,23.84313 C4.76524,26.148405 2.196505,31.04437 2.196505,36.203795 C2.196505,45.40294 9.880755,52.582225 23.273305,52.582225 C36.051115,52.582225 44.350105,45.97377 44.964845,35.91838 L32.20899,35.91838 C32.20899,38.487115 31.572295,42.81225 23.91,42.81225 C18.794485,42.81225 15.61101,41.956005 14.974315,38.223655 C14.974315,33.042275 25.820085,33.32769 34.119075,31.329785 C41.78137,29.309925 46.896885,24.435915 46.896885,17.52009 C46.896885,4.87401 36.68781,-7.10542736e-15 23.91,-7.10542736e-15"></path>
                    </g>
                </g>
            </g>
            <g id="Group" transform="translate(68.537000, 113.255000) scale(-1, 1) rotate(-180.000000) translate(-68.537000, -113.255000) translate(34.537000, 92.755000)" fill="#FFFFFF">
                <polyline id="Shape" points="-2.84217094e-14 14.955 44.04173 40.532575 67.66531 0.003645 8.29899 0.003645"></polyline>
            </g>
            <g id="Group" transform="translate(138.150000, 176.120000) scale(-1, 1) rotate(-180.000000) translate(-138.150000, -176.120000) translate(127.150000, 150.120000)" stroke="#FFFFFF" stroke-width="12.887585" fill="#000000">
                <path d="M-2.84217094e-14,0 L-2.84217094e-14,51.15515" id="Shape"></path>
            </g>
            <g id="Group" transform="translate(29.260000, 177.515000) scale(-1, 1) rotate(-180.000000) translate(-29.260000, -177.515000) translate(0.760000, 150.015000)" fill="#FFFFFF">
                <g transform="translate(0.000000, 0.000000)" id="Shape">
                    <g transform="translate(0.380525, 0.806050)">
                        <path d="M12.955,26.91 C12.955,18.87447 19.9806,12.266015 27.62094,12.266015 C35.941885,12.266015 42.308835,18.87447 42.308835,26.91 C42.308835,34.660115 35.941885,41.553985 27.62094,41.553985 C19.9806,41.553985 12.955,34.660115 12.955,26.91 M26.984245,0.47618 C12.955,0.47618 0.83584,12.266015 0.83584,26.91 C0.83584,41.553985 12.955,53.058405 26.984245,53.058405 C32.736455,53.058405 37.85197,51.609375 42.308835,48.46981 L42.308835,52.487575 L55.086645,52.487575 L55.086645,1.639795 L42.308835,1.639795 L42.308835,4.801315 C38.488665,1.92521 32.736455,0.47618 26.984245,0.47618"></path>
                    </g>
                </g>
            </g>
            <g id="Group" transform="translate(197.725000, 67.240000) scale(-1, 1) rotate(-180.000000) translate(-197.725000, -67.240000) translate(136.725000, 0.740000)" fill="#FFFFFF">
                <polyline id="Shape" points="61.865 0 0.588595 106.87694 44.630325 132.73993 121.23132 0"></polyline>
            </g>
            <g id="Group" transform="translate(88.125000, 169.015000) scale(-1, 1) rotate(-180.000000) translate(-88.125000, -169.015000) translate(59.625000, 133.015000)" fill="#FFFFFF">
                <g transform="translate(0.000000, 0.000000)" id="Shape">
                    <g transform="translate(0.245150, 0.806050)">
                        <path d="M12.955,26.91 C12.955,18.87447 19.343905,12.266015 27.642895,12.266015 C35.283235,12.266015 42.33079,18.87447 42.33079,26.91 C42.33079,34.660115 35.283235,41.553985 27.642895,41.553985 C19.343905,41.553985 12.955,34.660115 12.955,26.91 M27.0062,0.47618 C12.318305,0.47618 0.83584,12.266015 0.83584,26.91 C0.83584,41.553985 12.318305,53.058405 27.0062,53.058405 C32.736455,53.058405 37.85197,51.609375 42.33079,48.46981 L42.33079,70.007665 L55.086645,70.007665 L55.086645,1.639795 L42.33079,1.639795 L42.33079,4.801315 C37.85197,1.92521 32.736455,0.47618 27.0062,0.47618"></path>
                    </g>
                </g>
            </g>
            <g id="Group" transform="translate(133.247000, 96.939000) scale(-1, 1) rotate(-180.000000) translate(-133.247000, -96.939000) translate(86.247000, 46.939000)" fill="#FFFFFF">
                <polyline id="Shape" points="5.68434189e-14 73.82 44.678425 99.090205 93.83567 13.202245 47.225205 13.202245 47.225205 0.556165 34.46935 0.556165 34.46935 13.202245"></polyline>
            </g>
            <g id="Group" transform="translate(225.990000, 163.015000) scale(-1, 1) rotate(-180.000000) translate(-225.990000, -163.015000) translate(137.490000, 121.015000)" fill="#FFFFFF">
                <g transform="translate(0.000000, -0.000000)" id="Shape">
                    <g transform="translate(149.247450, 58.233500)">
                        <path d="M6.955,0 C3.74957,0 0.566095,2.876105 0.566095,6.32304 C0.566095,9.769975 3.74957,12.64608 6.955,12.64608 C10.77517,12.64608 13.343905,9.769975 13.343905,6.32304 C13.343905,2.876105 10.77517,0 6.955,0 M6.955,11.76788 C3.74957,11.76788 1.839485,9.199145 1.839485,6.32304 C1.839485,3.446935 3.74957,0.856245 6.955,0.856245 C10.138475,0.856245 12.04856,3.446935 12.04856,6.32304 C12.04856,9.199145 10.138475,11.76788 6.955,11.76788"></path>
                    </g>
                    <g transform="translate(153.564750, 61.087650)">
                        <path d="M3.955,0 L2.68161,2.876105 L1.40822,2.876105 L1.40822,0 L0.4422,0 L0.4422,6.89387 L3.318305,6.89387 C3.955,6.89387 5.22839,6.01567 5.22839,4.87401 C5.22839,3.73235 4.591695,3.16152 3.955,2.876105 L5.22839,0 M2.68161,6.01567 L1.40822,6.01567 L1.40822,3.73235 L2.68161,3.73235 C3.955,3.73235 3.955,4.017765 3.955,4.87401 C3.955,5.466795 3.955,6.01567 2.68161,6.01567"></path>
                    </g>
                    <g transform="translate(58.940250, 0.806050)">
                        <path d="M12.955,26.91 C12.955,18.87447 19.343905,12.266015 27.642895,12.266015 C35.30519,12.266015 42.308835,18.87447 42.308835,26.91 C42.308835,34.660115 35.30519,41.553985 27.642895,41.553985 C19.343905,41.553985 12.955,34.660115 12.955,26.91 M26.984245,0.47618 C12.318305,0.47618 0.83584,12.266015 0.83584,26.91 C0.83584,41.553985 12.318305,53.058405 26.984245,53.058405 C32.736455,53.058405 37.85197,51.609375 42.308835,48.46981 L42.308835,52.487575 L54.44995,52.487575 L54.44995,1.639795 L42.308835,1.639795 L42.308835,4.801315 C37.85197,1.92521 32.736455,0.47618 26.984245,0.47618"></path>
                    </g>
                    <g transform="translate(0.254535, 0.806050)">
                        <path d="M12.955,26.91 C12.955,18.87447 19.9806,12.266015 27.642895,12.266015 C35.941885,12.266015 42.33079,18.87447 42.33079,26.91 C42.33079,34.660115 35.941885,41.553985 27.642895,41.553985 C19.9806,41.553985 12.955,34.660115 12.955,26.91 L12.955,26.91 Z M42.33079,70.007665 L55.086645,70.007665 L55.086645,1.639795 L42.33079,1.639795 L42.33079,4.801315 C38.488665,1.92521 33.37315,0.47618 27.642895,0.47618 C12.955,0.47618 0.83584,12.266015 0.83584,26.91 C0.83584,41.553985 12.955,53.058405 27.642895,53.058405 C33.37315,53.058405 38.488665,51.609375 42.33079,48.46981 L42.33079,70.007665 Z"></path>
                    </g>
                </g>
            </g>
        </g>
    </g>
</svg>